mtllib materials.mtl
v 0.0966838 -0.0479033 -0.1015967
v 0.1268453 -0.05595958 -0.05395031
v 0.1371551 -0.02838755 -0.04543895
v -0.06033081 -0.1304303 -0.1261122
v -0.06230098 -0.04909915 -0.1525632
v -0.07545745 -0.07573259 -0.0861212
v 0.001888275 0.03029442 -0.02499709
v 0.1258768 -0.04816085 0.02299389
v 0.1044492 -0.07103908 -0.05689394
v 0.08647797 0.1221273 -0.04534903
v 0.06337681 0.1468391 -0.0145061
v -0.0002225637 0.169842 -0.04560769
v 0.08696529 -0.1126723 -0.1391005
v 0.06268612 -0.04295504 -0.1409053
v 0.01147711 -0.03188181 0.1641035
v 0.01553681 0.01173198 0.1792338
v 0.06581134 0.0154047 0.1626322
v -0.03704125 0.1364069 -0.09265423
v 0.001517802 0.1241069 -0.09125233
v 0.01508906 0.162873 0.09406614
v -0.05032831 0.1525487 0.1059979
v -0.04396531 0.1685114 0.06936979
v 0.09737265 0.1299946 0.0555068
v 0.07950351 0.1202568 0.106972
v -0.1292773 0.1112956 0.03151694
v -0.09550208 0.1439334 -0.05656132
v -0.1040404 0.1483554 -0.008533657
v -0.1136335 0.06460142 0.1126537
v -0.1205457 0.01389194 0.0575701
v -0.1473611 0.04241455 0.004102677
v -0.01842612 -0.1692726 -0.1811067
v -0.04658899 -0.1118191 -0.1623665
v 0.1179223 0.09231257 -0.02994311
v 0.1422419 0.0518564 -0.01947337
v 0.1187232 0.01695919 0.08957034
v 0.1450993 0.02167737 0.03875756
v 0.01909295 0.04993606 0.1924874
v 0.05245709 0.1125219 0.1526803
v 0.1093158 0.0580107 0.1334743
v -0.06594357 0.1152111 0.1410934
v -0.05424139 0.08489954 0.1632733
v -0.1061037 -0.02487552 -0.002269715
v -0.06705147 -0.02280331 0.1110449
v 0.07587779 -0.03026795 0.1269484
v -0.1331899 0.09245539 -0.06409991
v -0.1217025 0.09459066 -0.09100467
v 0.1286916 0.04832053 -0.07565957
v 0.06451097 0.1075972 -0.08304176
v -0.0007053018 0.1750149 0.02588788
v -0.05921245 0.1719791 -0.01849243
v -0.00139302 0.1045097 0.1686646
v 0.05223584 0.11282 0.1523333
v -0.09743032 0.1262569 0.09580934
v -0.05647829 0.01693904 0.1497929
v -0.09632498 0.0003232956 0.09623635
v 0.09929639 0.02364409 0.1347894
v -0.09802496 0.1259776 0.0946089
v 0.1371213 0.06073213 0.04962569
v 0.1473611 0.01193631 0.00249368
v 0.1002024 -0.1263378 -0.09395176
v 0.03159916 -0.1767005 -0.1816452
v -0.05615106 0.1150546 -0.1254001
v 0.007132828 0.06002092 -0.1385931
v 0.02596277 0.07725871 -0.1155959
v -0.1181334 0.015607 -0.1276702
v -0.1069871 0.06270361 -0.1461488
v -0.1168964 0.001220822 -0.1009793
v 0.03219619 -0.06329429 -0.1719485
v 0.01808107 -0.06044167 -0.1820426
v 0.05200538 -0.1037259 -0.1752985
v 0.07622659 0.08239353 -0.1065773
v -0.09971321 0.1139708 -0.1130161
v 0.03456709 0.02009428 -0.1435696
v 0.04077414 -0.00187242 -0.1472507
v -0.02561134 0.08229423 -0.1476763
v -0.02946791 0.07074654 -0.1618606
v -0.08545223 -0.01601303 -0.1560732
v -0.02038497 -0.04678088 -0.1645299
v 0.1390719 -0.01180053 -0.08844429
v 0.1351028 0.006849766 -0.07474202
v 0.1334095 0.005368352 -0.08951604
v 0.01327273 0.02179813 -0.1732128
v 0.02504385 -0.001297951 -0.160025
v 0.03506091 -0.001634955 -0.1618458
v 0.02346897 -0.02712739 -0.1657315
v 0.03185299 -0.0256567 -0.1698369
v 0.01570874 -0.05239284 -0.1734631
v 0.00992626 -0.05004478 -0.1802358
v 0.03787476 -0.01757097 -0.155998
v 0.02561516 0.021613 -0.1542398
v -0.006465524 -0.002370238 -0.1691588
v -0.008103907 -0.02435005 -0.1663854
v 0.000785619 -0.02302933 -0.1760479
v -0.01502514 -0.00666523 -0.1618492
v -0.02631798 -0.001334429 -0.157136
v -0.07806262 0.002155185 -0.1620649
v 0.000108242 0.02021563 -0.1597279
v -0.05627623 0.03880167 -0.1018635
v -0.03178808 0.001695275 -0.1426784
v -0.00771901 0.04701054 -0.1470673
v -0.06212845 0.07747078 -0.1671617
v -0.1069759 0.02278721 -0.1441158
v -0.09204137 0.06021166 -0.1488168
v -0.1017809 0.07683861 -0.151313
v -0.05922917 0.09597552 -0.1543454
v 0.02135783 -0.09995288 -0.1924874
v -0.01345271 -0.1068533 -0.1891363
v 0.03291008 -0.1710425 -0.1892813
v 0.06150165 -0.1716141 -0.1639298
v 0.06860584 -0.1757355 -0.1454697
v -0.03127444 -0.05946511 -0.1696131
v -0.001892984 -0.1683812 -0.1918688
v 0.0001309216 -0.06484985 -0.178053
v -0.125033 0.02187157 -0.07814649
v -0.1299551 0.0501405 -0.075068
v -0.1262018 0.06839001 -0.09026182
v 0.04798788 -0.1680598 -0.18099
v 0.01065195 0.04360628 -0.153424
v -0.06046116 0.05075371 0.160043
v 0.03847781 0.03044105 -0.1378711
v 0.02175769 0.04557717 -0.147894
v 0.1005302 0.07485712 -0.09254664
v 0.1077482 0.05100381 -0.1082673
v 0.05482543 0.04823756 -0.08177677
v 0.08088729 0.06345093 -0.1209054
v 0.02941534 0.04860687 -0.134792
v 0.08393541 0.003902793 -0.1291119
v 0.05132511 0.06122875 -0.1349894
v 0.03876725 0.07367325 -0.1274618
v 0.1121215 0.02254677 -0.09637776
v 0.1170636 0.04093647 -0.1013287
v 0.1225499 -0.01389188 -0.1131616
v 0.09861961 -0.01512313 -0.1294536
v 0.08264643 -0.005576253 -0.1383861
v 0.1208672 0.006772637 -0.1090814
v 0.1451944 0.007248759 -0.04217345
v 0.02292553 -0.04969639 -0.1785061
v 0.01087683 -0.0006607771 -0.1270061
v 0.001409411 -0.00404191 -0.1613041
v 0.002492517 -0.03588659 -0.161249
v 0.02488875 -0.03604311 -0.1610106
v 0.007239878 -0.02659672 -0.1694073
v -0.09221613 0.143345 0.06776702
v -0.08647522 0.1540686 0.04284158
v -0.0545446 0.1767005 0.0365968
v -0.05933353 0.1766829 0.009042263
vn 0.8257278 -0.1400901 -0.5463959
vn -0.9678941 -0.09863716 -0.231196
vn -0.5945779 -0.716574 0.3646901
vn 0.4572361 0.8290812 -0.3218065
vn 0.7483925 0.2446704 -0.616478
vn 0.3173283 -0.3370444 0.8863993
vn 0.244749 0.689572 -0.6816072
vn -0.07433332 0.9188558 0.3875287
vn 0.47716 0.8182881 0.3205044
vn -0.896035 0.3983901 -0.1959761
vn -0.9132278 -0.2361746 0.3320191
vn -0.8480614 -0.2662708 -0.4581394
vn 0.8590696 0.5115072 -0.01897113
vn 0.8508251 -0.3270183 0.4112856
vn 0.5147101 0.2476794 0.8208097
vn -0.6760772 0.2469661 0.69421
vn 0.4289104 -0.8937284 -0.1314739
vn 0.1255901 -0.5626652 0.8170894
vn -0.5055795 -0.8574694 -0.09557907
vn -0.1803685 0.8629006 -0.4720908
vn -0.7559342 0.5937939 -0.2756307
vn 0.5934067 0.5719707 -0.5663198
vn 0.7151389 0.6866328 -0.1308124
vn 0.4123804 0.9108158 0.01889701
vn 0.3984587 0.914469 0.07054905
vn 0.00297183 0.9973898 -0.07214331
vn -0.952966 0.1440632 0.2666487
vn 0.7688987 0.5241504 0.3661438
vn 0.1947635 0.4529007 0.8700277
vn -0.2772157 0.8711629 0.4052489
vn -0.1505803 -0.941376 -0.3018886
vn -0.5179981 -0.5224987 0.677254
vn -0.8471227 -0.3337291 0.4135314
vn 0.6541865 -0.1624578 0.7386795
vn 0.808667 -0.3747558 0.4534488
vn -0.8747793 0.3274578 0.3571171
vn 0.4484021 0.7990606 0.4005467
vn 0.6826328 0.5376583 0.4949101
vn 0.8397199 0.4569983 0.2932968
vn -0.7259883 0.3521684 0.5906932
vn -0.1222635 0.7946191 0.5946698
vn 0.6396017 0.7579383 -0.1282149
vn 0.3672186 0.9278848 -0.06465504
vn -0.1822055 0.8665258 -0.464687
vn 0.9466386 -0.2915607 0.1373592
vn 0.9872557 0.0290382 -0.1564705
vn 0.1914079 -0.5746767 0.7956819
vn 0.4139811 0.6328881 -0.6542724
vn 0.3507895 0.5761046 -0.7382752
vn 0.411123 0.7441815 -0.5264711
vn 0.2679209 0.6856693 -0.6768132
vn 0.2171289 0.5922325 -0.7759611
vn -0.9312499 0.3009826 0.2053858
vn 0.5906995 0.3496625 -0.7271934
vn 0.05745455 0.6955146 -0.7162111
vn -0.1562788 0.8666104 -0.4738812
vn 0.7501265 0.3098575 -0.5842077
vn 0.5540922 0.5654199 -0.6109683
vn -0.2500418 -0.2734965 -0.9288051
vn 0.9430807 0.3023923 -0.1384114
vn -0.1670901 -0.5517303 -0.8171135
vn -0.4611093 0.3349268 -0.821707
vn 0.6941966 0.6106964 -0.3809738
vn 0.6397002 0.181134 -0.7469766
vn 0.7461278 0.460484 -0.4808823
vn -0.7334582 -0.03100525 -0.6790271
vn -0.3391674 0.1077669 -0.9345329
vn 0.06674353 -0.3368789 -0.9391794
vn -0.7800985 -0.5651372 -0.2684518
vn -0.6416087 -0.755985 -0.1297115
vn -0.6666422 0.4440194 -0.5986943
vn -0.05576855 0.1532383 -0.9866144
vn -0.6773626 0.2944871 -0.6741344
vn 0.2454944 0.786045 -0.5673321
vn 0.08277494 0.9812071 -0.1743013
vn -0.8261299 0.4003958 -0.3964751
vn -0.2941346 -0.8337061 -0.4673533
vn -0.1835942 -0.05005291 -0.981727
vn 0.2183238 0.7964914 -0.5638583
vn 0.1704542 -0.8410771 -0.5133563
vn -0.2121508 -0.2654695 -0.9404882
vn 0.6626372 -0.3477505 -0.6633111
vn -0.3452445 -0.333915 -0.8771015
vn -0.3883786 0.7878346 -0.4779944
vn -0.9398032 0.2692918 -0.2103614
vn -0.2094452 0.7076443 -0.6748127
vn -0.8211879 -0.02925709 -0.5699075
vn -0.671154 -0.394545 -0.6276039
vn -0.6487603 0.01294026 -0.7608827
vn -0.1404161 0.2421392 -0.960027
vn 0.4925835 0.04084097 -0.8693064
vn 0.7171827 -0.01635032 -0.6966934
vn 0.9123802 -0.2315249 -0.3375776
vn -0.9345311 -0.3253457 -0.1442284
vn -0.7419878 -0.5585275 -0.3708114
vn -0.8936458 -0.1582275 -0.4199539
vn -0.4769287 0.01787706 -0.8787602
vn -0.6229956 -0.05077421 -0.7805757
vn -0.1007479 0.02524197 -0.9945918
vn 0.4964955 0.2600994 -0.8281549
vn 0.7274401 0.2366595 -0.6440678
vn 0.9607883 0.01612129 -0.2768137
vn -0.3572653 -0.55497 0.7512455
vn -0.1970123 0.3092051 -0.9303647
vn -0.6335864 0.07880528 -0.769648
vn -0.2582668 0.542158 -0.7996017
vn 0.4645745 -0.6716229 0.5771424
vn -0.311907 0.573508 -0.7574976
vn 0.4075562 0.7419352 -0.5323817
vn 0.5919865 0.7509067 -0.2927305
vn 0.240773 0.5268427 -0.8151473
vn 0.3947914 0.6570229 -0.642231
vn -0.9557843 -0.0577845 -0.2883352
vn -0.9660434 0.2581314 -0.01133267
vn -0.8388178 -0.4922884 -0.2324585
vn -0.9743519 -0.183791 0.1298429
vn -0.976126 -0.01852581 -0.2164138
vn -0.9289712 -0.3701332 0.003717601
vn -0.7979923 0.596656 -0.0849114
vn -0.7698872 0.5857036 -0.2534268
vn -0.9301361 0.1502277 -0.3350797
vn -0.9455079 -0.07024218 -0.3179321
vn -0.93694 -0.1277101 -0.3253207
vn -0.9681585 -0.009167415 -0.2501699
vn -0.9139336 0.1462114 -0.3786128
vn -0.8000621 0.4015602 -0.4457017
vn 0.3444094 -0.8793351 -0.3288647
vn 0.4212549 -0.761658 -0.4923631
vn 0.4213112 -0.7617832 -0.4921212
vn -0.01693 -0.8019674 -0.5971279
vn -0.1433252 -0.9436351 -0.2983463
vn 0.4739546 0.04818638 -0.8792298
vn -0.1210122 -0.8519205 0.5094973
vn -0.5797269 -0.5429745 0.6075322
vn 0.07156648 -0.03332867 -0.9968788
vn 0.7844555 0.005876765 -0.6201573
vn 0.8928611 -0.2202666 -0.3927869
vn -0.5419535 -0.06460846 -0.8379213
vn -0.3449444 0.3167243 -0.8835718
vn -0.2464985 0.3542302 -0.9020862
vn -0.6546974 -0.4311552 0.6208674
vn -0.3777298 -0.01877261 0.9257256
vn -0.3618479 -0.3092097 0.8794631
vn -0.6574696 0.04862655 0.7519103
vn -0.6780372 -0.2852122 0.6774361
vn -0.2691607 0.4988921 0.8238078
vn -0.2136866 0.3223455 0.9221884
vn 0.06949067 0.7781847 0.6241792
vn 0.4452602 -0.48827 0.7505569
vn 0.8784828 -0.2403156 0.4129362
vn 0.8131014 -0.4128825 0.4103586
vn 0.6452707 -0.3769402 0.6644862
vn 0.5463715 0.01519499 0.8374051
vn -0.3809708 -0.2711846 0.8839232
vn 0.104066 -0.9432316 -0.3154113
vn -0.8382867 -0.5271595 0.1392061
vn -0.6973044 -0.3478371 0.6267184
vn -0.6743103 -0.6965753 0.2451298
vn -0.7335861 -0.6373534 0.2358646
vn -0.3809708 -0.2711855 0.8839229
vn 0.3173283 -0.3370432 0.8863998
vn 0.6517951 0.2446588 -0.7178476
vn 0.5065072 0.7024127 -0.5000669
vn 0.7418478 0.5108042 -0.4344432
vn 0.312383 -0.9370177 -0.1562518
vn 0.6241521 0.7238316 -0.2941122
vn 0.4035169 0.5423398 -0.7369136
vn 0.2984283 0.6213892 -0.7244418
vn -0.2069615 0.3449424 -0.9155226
vn 0.3669273 -0.6473761 -0.6680333
vn -0.1853305 -0.8678945 -0.4608816
vn 0.1920875 0.772437 -0.6053457
vn 0.5510635 0.5853956 -0.5946771
vn 0.8933307 -0.3239359 -0.3114898
vn -0.2857414 -0.7088633 -0.6448758
vn -0.3133005 -0.1674641 -0.934772
vn 0.5571868 -0.6138868 -0.5591834
vn 0.5535238 0.3343955 -0.7627523
vn 0.6803244 0.2568379 -0.686435
vn 0.2381513 0.6672256 -0.7057577
vn -0.5521745 0.4171112 -0.7218875
vn -0.03793519 0.9444945 -0.3263294
vn 0.4668515 0.7618533 -0.4490314
vn 0.2269843 0.6792486 -0.697925
vn 0.5341156 -0.3785632 -0.755917
vn 0.4687808 0.5843461 -0.6624078
vn 0.3595437 0.3274693 -0.8737805
vn 0.7220967 0.4493831 -0.5259575
vn 0.8249756 0.2401443 -0.5116113
vn 0.8114269 0.1761105 -0.5572895
vn 0.03010845 0.05119836 -0.9982345
vn 0.7851874 0.4017467 -0.4712538
vn 0.6764446 0.7359451 0.02841442
vn 0.5359377 0.5716384 -0.6212893
vn 0.5345966 -0.06125855 -0.8428842
vn 0.03614121 -0.5045217 -0.8626423
vn 0.3285361 0.6373178 -0.6970581
vn 0.5605729 0.182054 -0.8078455
vn 0.6642003 -0.6377501 -0.3900165
vn 0.54791 -0.8315534 0.09117899
vn 0.930554 -0.3629286 0.04849723
vn 0.9453543 0.1396288 -0.2946335
vn 0.8586428 0.4551575 -0.2357207
vn 0.8673366 0.4977219 0.0003417694
vn 0.9524563 0.1858848 -0.2413999
vn 0.969275 -0.2272796 0.09407385
vn 0.6715463 -0.7008814 -0.240397
vn 0.9754865 -0.2163961 -0.03998614
vn 0.5368279 -0.7076025 -0.4594721
vn 0.9937354 0.09539788 -0.05821634
vn 0.9811749 0.1868785 0.04870538
vn 0.9405068 -0.3396285 -0.009980841
vn 0.9898328 0.1401828 0.02407987
vn 0.9440332 -0.1144993 0.30934
vn 0.8844011 0.05157864 0.4638687
vn 0.7161157 0.09541079 -0.6914299
vn 0.652661 0.6606163 -0.3709714
vn 0.3009504 0.6937852 -0.6542866
vn 0.6496415 0.7454553 -0.1492058
vn 0.8780841 0.3902775 -0.2768603
vn 0.5823491 0.004996482 -0.8129236
vn -0.6156382 0.4825883 -0.6229752
vn 0.9626273 0.03227596 -0.2688997
vn -0.216857 -0.0004521534 -0.9762033
vn -0.1510011 0.4766826 -0.8660094
vn -0.614371 0.4946479 -0.6147127
vn 0.7407221 0.4858537 -0.4639795
vn 0.9141374 0.01271921 -0.4052049
vn -0.2798338 0.2310746 -0.9318249
vn -0.6339154 -0.05012811 -0.7717761
vn -0.4392826 0.1675024 -0.8825949
vn -0.3378377 0.1076221 -0.9350311
vn -0.7006414 0.4388429 -0.5625998
vn 0.6973356 0.1360566 -0.7037128
vn 0.930925 0.03083813 -0.3639061
vn 0.7549009 0.2787215 -0.5936657
vn 0.8365127 0.4446438 -0.3202161
vn 0.7496516 0.3098275 -0.5848329
vn 0.6803955 0.4353876 -0.5894909
vn -0.7604862 -0.5676461 -0.3153386
vn -0.9187687 0.01529161 -0.3944999
vn -0.1671166 0.2224014 -0.9605257
vn 0.8564641 -0.4803387 -0.1890609
vn 0.5321409 -0.543494 -0.6491843
vn -0.3110834 0.6994823 -0.6433907
vn 0.383833 0.2936168 -0.8754778
vn -0.6622773 0.4582842 -0.59276
vn -0.1393807 0.6472428 -0.749433
vn 0.723531 0.5095319 -0.4657038
vn -0.2811307 0.3288137 -0.9015803
vn -0.4403225 0.1610989 -0.8832685
vn -0.2644777 -0.522774 0.8104066
vn 0.9324203 -0.2533299 -0.2577137
vn -0.9839014 -0.06950038 0.1646437
vn -0.7194348 -0.1378918 -0.6807345
vn -0.6554092 0.2692753 0.7056413
vn -0.4554285 0.4468178 -0.7700251
vn 0.9023419 -0.09116746 0.4212691
vn 0.7565606 0.3853728 -0.5283028
vn 0.7590027 0.3426338 -0.5536398
vn 0.3557597 0.7169985 -0.5994565
vn 0.6554092 -0.2692753 -0.7056412
vn -0.9595326 -0.003704141 0.2815734
vn 0.8488163 0.02978293 0.5278484
vn 0.02290867 0.9851539 0.1701384
vn -0.4939671 0.8684345 0.0426388
vn -0.7178298 0.6841611 0.1290114
vn -0.4925744 0.7935449 0.357291
vn 0.03012573 0.9995289 -0.005870886
vn -0.4883254 0.856786 -0.1656989
vn -0.4531041 0.8520247 0.2622033
vn -0.7561736 0.6117884 0.2321994
vn -0.7187231 0.6739969 0.1707787
vn -0.4300491 0.7975824 0.4229895
vn -0.5167823 0.8140703 0.2650008
vn -0.4867292 0.8607204 -0.1491813
vn -0.5621015 0.8208911 0.1008943
vn -0.5595775 0.8231137 0.09673043
vn 0.0740565 0.9728682 0.2191875
vn 0.07611703 0.9829155 -0.1675807
vn -0.2772157 0.8711629 0.4052489
vn -0.1665966 0.8760511 -0.4525263
vn 0.7277299 0.5717801 -0.3787831
vn 0.2473001 0.5452445 -0.8009688
vn 0.408565 -0.1575842 -0.8990228
vn 0.5435922 0.2049746 -0.8139367
usemtl mat22
f 3//1 2//1 1//1
f 6//2 5//2 4//2
f 9//3 8//3 7//3
f 12//4 11//4 10//4
f 14//5 1//5 13//5
f 17//6 16//6 15//6
f 19//7 18//7 12//7
f 22//8 21//8 20//8
f 20//9 24//9 23//9
f 27//10 26//10 25//10
f 30//11 29//11 28//11
f 32//12 31//12 4//12
f 34//13 33//13 23//13
f 36//14 35//14 8//14
f 39//15 38//15 37//15
f 41//16 40//16 28//16
f 7//17 43//17 42//17
f 7//18 6//18 4//18
f 7//19 8//19 44//19
f 18//20 26//20 12//20
f 26//21 46//21 45//21
f 48//22 10//22 47//22
f 10//23 23//23 33//23
f 11//24 49//24 23//24
f 23//25 49//25 20//25
f 50//26 49//26 12//26
f 28//27 25//27 30//27
f 39//28 23//28 24//28
f 38//29 52//29 51//29 37//29
f 21//30 53//30 40//30
f 44//31 15//31 7//31
f 54//32 43//32 15//32
f 29//33 55//33 28//33
f 17//34 56//34 39//34
f 35//35 44//35 8//35
f 28//36 53//36 57//36 25//36
f 52//37 38//37 24//37 20//37
f 39//38 24//38 38//38
f 39//39 58//39 23//39
f 40//40 53//40 28//40
f 40//41 51//41 20//41
f 11//42 23//42 10//42
f 11//43 12//43 49//43
f 50//44 12//44 26//44
f 59//45 36//45 8//45
f 1//46 9//46 60//46
f 4//47 61//47 7//47
f 63//48 62//48 18//48
f 64//49 63//49 19//49
f 48//50 12//50 10//50
f 19//51 12//51 48//51
f 19//52 63//52 18//52
f 67//53 66//53 65//53
f 70//54 69//54 68//54
f 71//55 64//55 48//55
f 62//56 72//56 18//56
f 74//57 73//57 14//57
f 76//58 75//58 63//58
f 78//59 5//59 77//59
f 81//60 80//60 79//60
f 84//61 83//61 82//61
f 86//62 85//62 84//62
f 88//63 87//63 69//63
f 68//64 89//64 14//64
f 84//65 82//65 90//65
f 93//66 92//66 91//66
f 95//67 94//67 78//67
f 95//68 77//68 96//68
f 77//69 67//69 65//69
f 67//70 77//70 42//70
f 97//71 82//71 91//71
f 95//72 78//72 77//72
f 100//73 99//73 98//73
f 96//74 98//74 99//74
f 96//75 99//75 95//75
f 95//76 99//76 100//76
f 98//77 101//77 100//77
f 103//78 102//78 66//78
f 98//79 96//79 102//79
f 101//80 98//80 103//80
f 104//81 103//81 66//81
f 102//82 103//82 98//82
f 104//83 101//83 103//83
f 105//84 104//84 62//84
f 104//85 66//85 72//85
f 62//86 104//86 72//86
f 102//87 65//87 66//87
f 102//88 96//88 65//88
f 96//89 77//89 65//89
f 107//90 69//90 106//90
f 70//91 108//91 106//91
f 13//92 109//92 70//92
f 60//93 110//93 13//93
f 6//94 42//94 77//94
f 77//95 5//95 6//95
f 4//96 5//96 32//96
f 111//97 32//97 5//97
f 31//98 32//98 107//98
f 112//99 107//99 106//99
f 70//100 106//100 69//100
f 13//101 70//101 14//101
f 60//102 13//102 1//102
f 7//103 110//103 60//103
f 107//104 111//104 113//104
f 107//105 32//105 111//105
f 5//106 78//106 111//106
f 7//107 42//107 6//107
f 105//108 101//108 104//108
f 105//109 62//109 75//109
f 63//110 75//110 62//110
f 76//111 101//111 105//111
f 105//112 75//112 76//112
f 114//113 66//113 67//113
f 30//114 25//114 45//114
f 42//115 30//115 115//115
f 114//116 42//116 115//116
f 45//117 115//117 30//117
f 42//118 114//118 67//118
f 25//119 26//119 45//119
f 26//120 72//120 46//120
f 116//121 46//121 66//121
f 115//122 116//122 66//122
f 114//123 115//123 66//123
f 45//124 116//124 115//124
f 46//125 116//125 45//125
f 72//126 66//126 46//126
f 110//127 61//127 109//127
f 109//128 61//128 117//128
f 117//129 61//129 108//129
f 108//130 61//130 112//130
f 112//131 61//131 31//131
f 70//132 117//132 108//132
f 31//133 61//133 4//133
f 7//134 61//134 110//134
f 106//135 108//135 112//135
f 109//136 117//136 70//136
f 110//137 109//137 13//137
f 107//138 112//138 31//138
f 95//139 100//139 97//139
f 118//140 97//140 100//140
f 54//141 55//141 43//141
f 119//142 37//142 41//142
f 37//143 119//143 54//143
f 28//144 119//144 41//144
f 119//145 28//145 54//145
f 40//146 41//146 51//146
f 41//147 37//147 51//147
f 52//148 20//148 51//148
f 17//149 15//149 44//149
f 35//150 39//150 56//150
f 35//151 56//151 44//151
f 44//152 56//152 17//152
f 37//153 17//153 39//153
f 16//154 37//154 54//154
f 7//155 15//155 43//155
f 30//156 42//156 29//156
f 54//157 28//157 55//157
f 42//158 43//158 55//158
f 29//159 42//159 55//159
f 54//160 15//160 16//160
f 17//161 37//161 16//161
f 73//162 121//162 120//162 14//162
f 122//163 71//163 48//163
f 123//164 122//164 47//164
f 126//165 125//165 124//165
f 126//166 124//166 127//166
f 126//167 63//167 64//167
f 71//168 125//168 128//168
f 126//169 129//169 128//169
f 126//170 128//170 125//170
f 124//171 125//171 123//171
f 130//172 127//172 124//172
f 123//173 125//173 71//173
f 130//174 131//174 47//174
f 131//175 124//175 123//175
f 124//176 131//176 130//176
f 14//177 132//177 1//177
f 68//178 14//178 70//178
f 74//179 14//179 89//179
f 129//180 71//180 128//180
f 129//181 126//181 64//181
f 71//182 129//182 64//182
f 121//183 63//183 126//183
f 118//184 63//184 121//184
f 133//185 132//185 14//185
f 120//186 127//186 134//186
f 126//187 127//187 120//187
f 126//188 120//188 121//188
f 135//189 81//189 79//189
f 79//190 132//190 135//190
f 120//191 134//191 14//191
f 123//192 47//192 131//192
f 48//193 47//193 122//193
f 71//194 122//194 123//194
f 76//195 63//195 100//195
f 101//196 76//196 100//196
f 135//197 134//197 127//197
f 133//198 134//198 135//198
f 132//199 79//199 1//199
f 2//200 8//200 9//200
f 3//201 8//201 2//201
f 80//202 47//202 136//202
f 34//203 47//203 33//203
f 58//204 34//204 23//204
f 136//205 47//205 34//205
f 3//206 136//206 8//206
f 79//207 3//207 1//207
f 136//208 3//208 79//208
f 1//209 2//209 9//209
f 59//210 136//210 34//210
f 34//211 58//211 36//211
f 59//212 8//212 136//212
f 36//213 59//213 34//213
f 58//214 39//214 35//214
f 36//215 58//215 35//215
f 130//216 47//216 80//216
f 135//217 130//217 81//217
f 127//218 130//218 135//218
f 80//219 81//219 130//219
f 79//220 80//220 136//220
f 68//221 69//221 137//221
f 137//222 69//222 87//222
f 140//223 139//223 138//223
f 88//224 69//224 113//224
f 111//225 78//225 113//225
f 137//226 87//226 138//226
f 138//227 87//227 88//227
f 89//228 86//228 84//228
f 94//229 95//229 97//229
f 94//230 91//230 92//230
f 88//231 78//231 92//231
f 94//232 92//232 78//232
f 91//233 94//233 97//233
f 89//234 68//234 137//234
f 84//235 74//235 89//235
f 90//236 121//236 73//236
f 84//237 90//237 74//237
f 73//238 74//238 90//238
f 139//239 93//239 91//239
f 83//240 138//240 82//240
f 141//241 138//241 83//241
f 85//242 83//242 84//242
f 139//243 82//243 138//243
f 82//244 139//244 91//244
f 88//245 140//245 138//245
f 118//246 121//246 90//246
f 118//247 82//247 97//247
f 100//248 63//248 118//248
f 82//249 118//249 90//249
f 113//250 69//250 107//250
f 88//251 113//251 78//251
f 7//252 60//252 9//252
f 89//253 137//253 86//253
f 85//254 137//254 141//254
f 93//255 88//255 92//255
f 141//256 89//256 85//256
f 85//257 86//257 137//257
f 142//258 140//258 88//258
f 139//259 142//259 93//259
f 93//260 142//260 88//260
f 138//261 141//261 137//261
f 85//262 89//262 141//262
f 85//263 141//263 83//263
f 139//264 140//264 142//264
f 22//265 20//265 49//265
f 57//266 53//266 21//266
f 144//267 25//267 143//267
f 145//268 144//268 22//268
f 146//269 145//269 49//269
f 50//270 26//270 27//270
f 143//271 22//271 144//271
f 143//272 25//272 57//272
f 25//273 144//273 27//273
f 22//274 143//274 57//274
f 21//275 22//275 57//275
f 50//276 27//276 146//276
f 27//277 144//277 145//277
f 146//278 27//278 145//278
f 22//279 49//279 145//279
f 50//280 146//280 49//280
f 20//281 21//281 40//281
f 18//282 72//282 26//282
f 47//283 10//283 33//283
f 19//284 48//284 64//284
f 133//285 14//285 134//285
f 133//286 135//286 132//286
